<svg xmlns="http://www.w3.org/2000/svg" width="21" height="26" viewBox="0 0 21 26">
    <path fill="#F8F8F8" fill-rule="evenodd" d="M17.54 13.826l-6.532 2.31 6.532-2.31c.034 3.939 3.42 5.24 3.46 5.253-.02.092-.53 1.879-1.799 3.693-1.06 1.597-2.172 3.159-3.936 3.186-1.714.04-2.29-1.016-4.257-1.016-1.985 0-2.6.989-4.243 1.056-1.68.064-2.965-1.705-4.064-3.287-2.195-3.23-3.905-9.107-1.612-13.105 1.11-1.961 3.137-3.223 5.301-3.258 1.683-.034 3.244 1.145 4.278 1.145 1.015 0 2.944-1.41 4.935-1.2.832.024 3.203.33 4.73 2.577-.123.074-2.822 1.673-2.793 4.956zm-3.238-9.658c-.922 1.096-2.4 1.935-3.837 1.827-.188-1.48.54-3.053 1.356-4.013C12.743.89 14.343.056 15.623 0c.168 1.539-.436 3.053-1.32 4.168z"/>
</svg>
