<svg xmlns="http://www.w3.org/2000/svg" width="30" height="32" viewBox="0 0 30 32">
    <defs>
        <path id="a" d="M0 .25h31.828v33.643H0z"/>
    </defs>
    <g fill="none" fill-rule="evenodd">
        <path fill="#FFF" d="M7.332 11.23C6.217 10.77 2.777 9.053.326 4.668l-.02.27c-.012.176-.276 4.225 1.16 9.303C4.275 15.63 6.92 15.934 7.96 16a19.242 19.242 0 0 1-.628-4.77"/>
        <path fill="#FFF" d="M7.509 10.913c.642-.561 2.8-2.073 7.406-2.073 4.77 0 6.943 1.618 7.506 2.123 1.535-.969 4.396-3.3 4.739-7.357-1.269-.705-3.233-1.528-6.047-2.055-.877 2.204-2.304 4.03-3.21 4.659 1.15.841 1.398 2.036 1.398 2.036-3.014-1.463-8.539-.277-8.539-.277s.352-1.148 1.657-1.91c-.85-.457-2.6-2.314-3.551-4.54-2.785.505-4.741 1.303-6.028 2.005.306 4.04 3.106 6.384 4.669 7.39"/>
        <path fill="#FFF" d="M13.477 4.592c.492-.139 1.205-.314 1.886-.314.573 0 1.067.068 1.496.181l.528.208c1.158-.858 1.77-2.563 2.093-4.174a38.752 38.752 0 0 0-4.347-.234c-1.456 0-2.775.073-3.973.196.36 1.667 1.037 3.39 2.317 4.137M22.485 17.66a16.925 16.925 0 0 1-1.725 3.757c.926.46 2.516 1.368 3.986 2.768 1.52-2.063 2.757-4.381 3.694-6.926-2.91.728-5.078.535-5.955.4M29.693 4.72l-.003-.053c-2.552 4.481-6.09 6.125-7.005 6.489-.002.906-.091 2.72-.645 4.844 1.22-.157 3.906-.674 6.624-2.322 1.289-4.924 1.041-8.785 1.03-8.959M7.977 17.293c-.726.16-2.832.504-5.777-.034.973 2.555 2.262 4.874 3.842 6.926 1.329-1.35 2.815-2.283 3.838-2.83a16.505 16.505 0 0 1-1.903-4.062M16.027 25.71L14.83 10.964l-1.416 14.654a13.528 13.528 0 0 1-3.06-2.899 13.93 13.93 0 0 0-2.395 4.09 24.649 24.649 0 0 0 6.158 4.578l.672.355.673-.355a24.623 24.623 0 0 0 6.577-5.03 13.905 13.905 0 0 0-2.54-4.004 13.571 13.571 0 0 1-3.473 3.359"/>
    </g>
</svg>
