<?xml version="1.0" encoding="UTF-8"?>
<svg width="76px" height="80px" viewBox="0 0 76 80" version="1.1" xmlns="http://www.w3.org/2000/svg" xmlns:xlink="http://www.w3.org/1999/xlink">
    <!-- Generator: Sketch 47.1 (45422) - http://www.bohemiancoding.com/sketch -->
    <title>crash</title>
    <desc>Created with Sketch.</desc>
    <defs></defs>
    <g id="Page-1" stroke="none" stroke-width="1" fill="none" fill-rule="evenodd">
        <g id="crash" fill-rule="nonzero" fill="#000000">
            <path d="M22.72,76.238 C25.472,76.238 27.71,73.999 27.71,71.247 C27.71,68.495 25.472,66.256 22.72,66.256 C19.968,66.256 17.729,68.495 17.729,71.247 C17.729,73.999 19.968,76.238 22.72,76.238 Z M22.72,68.756 C24.093,68.756 25.21,69.873 25.21,71.247 C25.21,72.621 24.093,73.738 22.72,73.738 C21.346,73.738 20.229,72.621 20.229,71.247 C20.229,69.873 21.346,68.756 22.72,68.756 Z" id="Shape"></path>
            <path d="M23.813,4.363 L17.054,4.363 C16.364,4.363 15.804,4.923 15.804,5.613 C15.804,6.303 16.364,6.863 17.054,6.863 L23.813,6.863 C24.503,6.863 25.063,6.303 25.063,5.613 C25.063,4.923 24.503,4.363 23.813,4.363 Z" id="Shape"></path>
            <circle id="Oval" cx="27.518" cy="5.613" r="1"></circle>
            <path d="M74.634,64.684 L44.302,34.351 L52.529,26.124 C53.432,25.221 53.432,23.758 52.529,22.855 L45.341,15.667 C45.242,15.568 45.134,15.484 45.023,15.407 L45.023,7.362 C45.023,3.33 41.743,0.049 37.71,0.049 L7.73,0.049 C3.698,0.049 0.417,3.329 0.417,7.362 L0.417,72.637 C0.417,76.669 3.697,79.95 7.73,79.95 L37.71,79.95 C41.742,79.95 45.023,76.67 45.023,72.637 L45.023,50.467 L66.937,72.381 C67.568,73.012 68.396,73.327 69.225,73.327 C70.053,73.327 70.881,73.012 71.512,72.382 C71.513,72.382 71.513,72.381 71.513,72.381 L74.633,69.26 C75.245,68.649 75.582,67.836 75.582,66.971 C75.582,66.106 75.246,65.294 74.634,64.684 Z M2.917,7.362 C2.917,4.709 5.076,2.549 7.73,2.549 L37.71,2.549 C40.363,2.549 42.523,4.708 42.523,7.362 L42.523,8.718 L2.917,8.718 L2.917,7.362 Z M42.523,72.638 C42.523,75.291 40.364,77.451 37.71,77.451 L7.73,77.451 C5.077,77.451 2.917,75.292 2.917,72.638 L2.917,64.935 L42.522,64.935 L42.522,72.638 L42.523,72.638 Z M42.523,62.435 L2.917,62.435 L2.917,11.219 L42.522,11.219 L42.522,15.325 C42.362,15.421 42.209,15.53 42.071,15.668 L33.845,23.894 L31.217,21.266 C29.955,20.004 27.903,20.004 26.641,21.266 L23.519,24.388 C22.257,25.65 22.257,27.702 23.519,28.964 L26.147,31.592 L20.162,37.577 C19.735,38.004 19.491,38.582 19.485,39.187 L19.346,52.362 C19.339,52.984 19.583,53.581 20.023,54.021 L20.693,54.691 C21.596,55.594 23.059,55.594 23.962,54.691 L36.604,42.049 L42.523,47.968 L42.523,62.435 L42.523,62.435 Z M31.725,26.015 L28.269,29.471 L25.641,26.843 C25.549,26.751 25.549,26.601 25.641,26.509 L28.763,23.387 C28.809,23.341 28.869,23.318 28.93,23.318 C28.991,23.318 29.051,23.341 29.097,23.387 L31.725,26.015 Z M72.513,67.139 L69.393,70.26 C69.299,70.354 69.15,70.353 69.058,70.261 L38.725,39.928 L42.181,36.472 L72.514,66.806 C72.571,66.863 72.582,66.928 72.582,66.972 C72.582,67.016 72.571,67.081 72.513,67.139 Z" id="Shape"></path>
        </g>
    </g>
</svg>