<svg xmlns="http://www.w3.org/2000/svg" width="179" height="41" viewBox="0 0 179 41">
    <g fill="#23212B" fill-rule="evenodd">
        <path d="M9.415 14.468C8.02 13.884 3.72 11.712.657 6.167l-.023.343c-.016.222-.346 5.342 1.448 11.764 3.514 1.758 6.82 2.142 8.118 2.226a24.607 24.607 0 0 1-.785-6.032"/>
        <path d="M9.636 14.067c.803-.71 3.5-2.623 9.258-2.623 5.962 0 8.68 2.047 9.382 2.686 1.92-1.225 5.496-4.174 5.924-9.305-1.586-.891-4.041-1.932-7.56-2.599-1.095 2.787-2.88 5.098-4.012 5.892 1.44 1.064 1.748 2.576 1.748 2.576-3.767-1.85-10.673-.35-10.673-.35s.439-1.453 2.07-2.416c-1.061-.578-3.25-2.927-4.438-5.743-3.481.64-5.927 1.65-7.535 2.537.382 5.108 3.882 8.074 5.836 9.345"/>
        <path d="M17.097 6.073c.614-.176 1.505-.398 2.357-.398.716 0 1.334.086 1.87.229l.66.263C23.43 5.082 24.196 2.926 24.6.887a47.883 47.883 0 0 0-5.434-.294c-1.82 0-3.468.092-4.966.247.45 2.109 1.297 4.287 2.897 5.233M28.356 22.598a21.524 21.524 0 0 1-2.156 4.753c1.157.581 3.145 1.73 4.983 3.5 1.899-2.608 3.446-5.54 4.617-8.758-3.639.92-6.348.676-7.444.505M37.367 6.233l-.005-.066c-3.19 5.668-7.611 7.746-8.756 8.206A25.394 25.394 0 0 1 27.8 20.5c1.525-.2 4.882-.852 8.28-2.936 1.611-6.228 1.302-11.111 1.287-11.33M10.221 22.135c-.907.203-3.54.638-7.221-.042 1.216 3.231 2.827 6.163 4.802 8.759 1.661-1.709 3.519-2.888 4.798-3.578a20.986 20.986 0 0 1-2.379-5.14M20.284 32.781L18.789 14.13l-1.77 18.533a16.995 16.995 0 0 1-3.826-3.667A17.661 17.661 0 0 0 10.2 34.17a30.84 30.84 0 0 0 7.697 5.79l.84.448.842-.449a30.821 30.821 0 0 0 8.221-6.36 17.609 17.609 0 0 0-3.174-5.064 17.055 17.055 0 0 1-4.342 4.247M57.912 23.61h2.57c.92 0 1.264-.17 1.512-.554.122-.189.052-1.381.052-1.68 0-.235-.065-.47-.193-.64-.321-.427-.835-.427-1.243-.427h-3.77v3.299l1.072.001zm2.527-6.3c.407 0 .9 0 1.156-.432.107-.204.15-.522.15-.726 0-.994.024-1.268-.167-1.568-.284-.444-.84-.56-1.16-.56h-2.763c-.236 0-.43 0-.621.18-.215.205-.193.432-.193.682v2.423h3.598zM52 25.8v-11.57c0-.652.193-1.205.515-1.54.364-.394 1.05-.691 1.69-.691h8.142c1.07 0 2.397.079 3.254.908.834.79.941 2.053.941 2.961 0 .75-.063 1.46-.748 2.152-.429.434-.879.65-1.5.69v.08c.77.058 1.392.374 1.777.71.793.71.815 1.598.815 2.447 0 .888.022 1.993-.9 2.902-.963.966-2.077.966-3.362.966h-7.84L52 25.801zM73.854 12v8.917c0 .611.043 1.421.749 1.954.428.316 1.158.494 1.843.494s1.414-.178 1.842-.494c.727-.553.748-1.402.748-1.954V12h4.842v8.29c0 1.402-.236 2.922-1.563 4.126-1.543 1.4-3.727 1.559-5.869 1.559-2.143 0-4.326-.158-5.87-1.56-1.327-1.203-1.562-2.723-1.562-4.125V12h4.84zM96.181 23.388v-3.892h4.84v4.249l.03 2.072h-9.453c-1.22 0-2.806-.375-3.77-1.164-1.65-1.343-1.8-3.85-1.8-5.665 0-2.192.194-4.737 2.143-6.04 1.371-.928 3.362-.948 3.77-.948h8.738v2.295h-6.554c-1.221 0-2.078.395-2.592 1.145-.513.77-.535 3.681-.535 4.45 0 .75.022 1.718.557 2.527.535.77 1.286.948 2.1.948h1.455l1.071.023zM105.335 25.817c-.579 0-1.222-.118-1.628-.434a1.751 1.751 0 0 1-.664-1.342V12h4.84v10.516c0 .158.022.492.236.671.193.157.514.178.772.178h4.578v2.452h-8.134zM122.628 19.766h3.084l-1.35-3.534c-.042-.1-.128-.3-.19-.3-.066 0-.151.2-.195.3l-1.35 3.534zM125.936 12l6.143 13.835h-4.032l-1.178-2.875h-5.398l-1.177 2.875h-5.098L121.364 12h4.572zM136.493 25.817h-3.067v-13.73h5.094l6.903 8.98-.022-9.067h3.275v13.807h-5.428l-6.77-9.19zM156.93 25.817c-2.335 0-3.898-.296-5.119-1.697-.9-1.026-1.37-2.389-1.37-5.034 0-2.31.236-4.046 1.307-5.29 1.37-1.618 3.555-1.796 5.246-1.796h6.34v2.453h-4.004c-1.586 0-2.764-.02-3.428 1.086-.428.69-.492 2.797-.492 3.468 0 1.54.236 3.035.364 3.272.642 1.086 2.034 1.086 3.64 1.086h4.156v2.452h-6.64zM171.607 23.444h7.325v2.373h-10.794l-2.506.016v-11.7c0-.534.086-1.107.642-1.58.557-.473 1.285-.553 1.82-.553h10.774v2.374h-7.41c-.28 0-.579.06-.75.198-.236.178-.236.493-.236.67v2.52h6.05v2.018h-6.05v3.66l1.135.004z"/>
    </g>
</svg>
