<svg xmlns="http://www.w3.org/2000/svg" xmlns:xlink="http://www.w3.org/1999/xlink" width="19" height="34" viewBox="0 0 19 34">
    <defs>
        <path id="a" d="M0 0h19v34H0z"/>
    </defs>
    <g fill="none" fill-rule="evenodd">
        <mask id="b" fill="#fff">
            <use xlink:href="#a"/>
        </mask>
        <path fill="#FFF" d="M12.374 3.677H6.626a.536.536 0 0 1-.539-.534c0-.295.241-.534.539-.534h5.748c.297 0 .539.24.539.534a.537.537 0 0 1-.539.534M9.5 31.727c-1.34 0-2.425-1.076-2.425-2.402S8.16 26.923 9.5 26.923a2.413 2.413 0 0 1 2.425 2.402c0 1.326-1.086 2.402-2.425 2.402M14.367 0H4.632C2.074 0 0 2.054 0 4.589V29.41C0 31.945 2.074 34 4.632 34h9.735C16.926 34 19 31.945 19 29.411V4.59C19 2.054 16.926 0 14.367 0" mask="url(#b)"/>
    </g>
</svg>
