<?xml version="1.0" encoding="UTF-8"?>
<svg width="1612px" height="1150px" viewBox="0 0 1612 1150" version="1.1" xmlns="http://www.w3.org/2000/svg" xmlns:xlink="http://www.w3.org/1999/xlink">
    <!-- Generator: Sketch 52.2 (67145) - http://www.bohemiancoding.com/sketch -->
    <title>Artboard</title>
    <desc>Created with Sketch.</desc>
    <g id="Artboard" stroke="none" stroke-width="1" fill="none" fill-rule="evenodd">
        <path d="M651.205755,892.403167 C468.809009,810.218232 470.018483,656.55107 344.11789,634.618505 C199.278752,609.38841 -10.4601052,776.506982 0.405768346,909.307285 C8.10463398,1003.40246 88.7439369,726.935394 110,758 C143.360064,806.75396 140.099998,1003.98275 491,872 C611.076859,826.836396 772.405371,947.014365 651.205755,892.403167 Z" id="Fill-1-Copy" fill="#CBB4F0"></path>
        <path d="M1437.62283,81 L1481.96572,81 C1525.80328,82.113054 1569.52525,86.5620586 1612,94.6595968 L1612,1150 L0,1150 L0,517.538676 C58.9772043,594.065877 133.324191,675.712803 264.986135,735.043429 C467.291323,826.209033 696.231933,861.991257 842,720.22 C955.98653,609.361086 848.609498,425.054419 961,270.016511 C1041.38619,159.124892 1236.70404,86.0529591 1437.62285,81 Z" id="Combined-Shape" fill="#F1C33F"></path>
    </g>
</svg>