<?xml version="1.0" encoding="UTF-8"?>
<svg width="70px" height="92px" viewBox="0 0 70 92" version="1.1" xmlns="http://www.w3.org/2000/svg" xmlns:xlink="http://www.w3.org/1999/xlink">
    <!-- Generator: Sketch 47.1 (45422) - http://www.bohemiancoding.com/sketch -->
    <title>task</title>
    <desc>Created with Sketch.</desc>
    <defs></defs>
    <g id="Page-1" stroke="none" stroke-width="1" fill="none" fill-rule="evenodd">
        <g id="task" transform="translate(0.000000, -1.000000)" fill-rule="nonzero" fill="#000000">
            <g id="Group" transform="translate(0.000000, 0.637820)">
                <path d="M35,0.36217 C30.934301,0.36217 27.527,2.85694 25.9688,6.36217 L18,6.36217 C16.952799,6.36227 16.0001,7.315 16,8.36217 L16,10.36217 L2,10.36217 C0.879999,10.36517 0.000699,11.40868 0,12.36217 L0,90.3622 C0.0001,91.4094 0.952799,92.3621 2,92.3622 L68,92.3622 C69.047201,92.3621 69.9999,91.4094 70,90.3622 L70,12.36217 C69.9999,11.315 69.047201,10.36227 68,10.36217 L54,10.36217 L54,8.36217 C53.9999,7.315 53.047201,6.36227 52,6.36217 L44.0313,6.36217 C42.473,2.85694 39.065701,0.36217 35,0.36217 Z M35,4.36217 C37.832401,4.36217 40.149601,6.24262 40.8125,8.83092 C41.0205,9.6934 41.8628,10.35909 42.75,10.36217 L50,10.36217 L50,16.36217 L20,16.36217 L20,10.36217 L27.25,10.36217 C28.137201,10.35917 28.9795,9.6934 29.1875,8.83092 C29.8504,6.24262 32.1676,4.36217 35,4.36217 Z M4,14.36217 L16,14.36217 L16,18.36217 C16.0001,19.40934 16.952799,20.36207 18,20.36217 L52,20.36217 C53.047201,20.36207 53.9999,19.40934 54,18.36217 L54,14.36217 L66,14.36217 L66,88.3622 L4,88.3622 L4,14.36217 Z M14,27.36219 C12.895399,27.36219 12,28.25759 12,29.36219 C12,30.46679 12.895399,31.36219 14,31.36219 L56,31.36219 C57.104601,31.36219 58,30.46679 58,29.36219 C58,28.25759 57.104601,27.36219 56,27.36219 L14,27.36219 Z M14,43.36219 C12.895399,43.36219 12,44.2576 12,45.3622 C12,46.4668 12.895399,47.3622 14,47.3622 L56,47.3622 C57.104601,47.3622 58,46.4668 58,45.3622 C58,44.2576 57.104601,43.36219 56,43.36219 L14,43.36219 Z M14,59.3622 C12.895399,59.3622 12,60.2576 12,61.3622 C12,62.4668 12.895399,63.3622 14,63.3622 L56,63.3622 C57.104601,63.3622 58,62.4668 58,61.3622 C58,60.2576 57.104601,59.3622 56,59.3622 L14,59.3622 Z M58.875,67.3309 C58.3654,67.3669 57.8733,67.6076 57.5313,67.9872 L45.75,80.6747 L39.1875,75.7372 C38.3459,75.1007 36.998,75.2959 36.3715,76.145 C35.7451,76.994 35.9561,78.3395 36.8125,78.9559 L44.8125,84.9559 C45.5956,85.5344 46.8074,85.4204 47.4688,84.7059 L60.4688,70.7059 C61.0221,70.1255 61.1721,69.1968 60.8297,68.4717 C60.4873,67.7466 59.6747,67.2724 58.875,67.3309 L58.875,67.3309 Z M14,77.3622 C12.895399,77.3622 12,78.2576 12,79.3622 C12,80.4668 12.895399,81.3622 14,81.3622 L30,81.3622 C31.104601,81.3622 32,80.4668 32,79.3622 C32,78.2576 31.104601,77.3622 30,77.3622 L14,77.3622 Z" id="Shape"></path>
            </g>
        </g>
    </g>
</svg>