<?xml version="1.0" encoding="UTF-8"?>
<svg width="96px" height="96px" viewBox="0 0 96 96" version="1.1" xmlns="http://www.w3.org/2000/svg" xmlns:xlink="http://www.w3.org/1999/xlink">
    <!-- Generator: Sketch 47.1 (45422) - http://www.bohemiancoding.com/sketch -->
    <title>usability</title>
    <desc>Created with Sketch.</desc>
    <defs></defs>
    <g id="Page-1" stroke="none" stroke-width="1" fill="none" fill-rule="evenodd">
        <g id="usability" fill-rule="nonzero" fill="#000000">
            <path d="M94.9,74.7 L67.7,47.5 L90.2,25 C94.4,20.8 94.4,13.9 90.2,9.7 L86.3,5.8 C82.1,1.6 75.2,1.6 71,5.8 L48.5,28.3 L21.3,1.1 C20.6,0.4 19.4,0.4 18.6,1.1 L1,18.7 C0.3,19.4 0.3,20.6 1,21.4 L28.2,48.6 L6.9,69.9 C5.5,71.3 4.6,73 4.2,74.9 L0.7,92.2 C0.5,93.1 0.8,93.9 1.4,94.6 C1.9,95.1 2.6,95.4 3.2,95.4 C3.4,95.4 3.5,95.4 3.7,95.3 L21,91.8 C22.9,91.4 24.7,90.5 26,89.1 L47.3,67.8 L74.5,95 C74.9,95.4 75.4,95.6 75.8,95.6 C76.3,95.6 76.8,95.4 77.1,95 L94.7,77.4 C95.7,76.6 95.7,75.4 94.9,74.7 Z M73.7,8.4 C75.1,7 76.9,6.3 78.7,6.3 C80.5,6.3 82.3,7 83.7,8.4 L87.6,12.3 C90.3,15 90.3,19.5 87.6,22.3 L87.2,22.7 L73.4,8.9 L73.7,8.4 Z M5.1,20 L20,5.1 L24.7,9.8 L17.3,17.2 C16.6,17.9 16.6,19.1 17.3,19.9 C17.7,20.3 18.2,20.5 18.6,20.5 C19,20.5 19.6,20.3 19.9,19.9 L27.3,12.5 L32,17.2 L24.6,24.6 C23.9,25.3 23.9,26.5 24.6,27.3 C25,27.7 25.5,27.9 25.9,27.9 C26.4,27.9 26.9,27.7 27.2,27.3 L34.6,19.9 L39.3,24.6 L31.9,32 C31.2,32.7 31.2,33.9 31.9,34.7 C32.3,35.1 32.8,35.3 33.2,35.3 C33.6,35.3 34.2,35.1 34.5,34.7 L41.9,27.3 L45.7,31.1 L30.8,46 L5.1,20 Z M9.6,72.6 L70.6,11.6 L76.2,17.2 L14.8,78.6 L9.2,73 C9.3,72.8 9.5,72.7 9.6,72.6 Z M9.2,90.4 L5.6,86.8 L7.6,76.8 L19.1,88.3 L9.2,90.4 Z M23.4,86.4 C23.3,86.5 23.1,86.6 23,86.7 L17.4,81.1 L78.8,19.7 L84.4,25.3 L23.4,86.4 Z M76,90.9 L50.1,65 L65,50.1 L68.8,53.9 L61.4,61.3 C60.7,62 60.7,63.2 61.4,64 C61.8,64.4 62.3,64.6 62.7,64.6 C63.1,64.6 63.7,64.4 64,64 L71.4,56.6 L76.1,61.3 L68.7,68.7 C68,69.4 68,70.6 68.7,71.4 C69.1,71.8 69.6,72 70,72 C70.5,72 71,71.8 71.3,71.4 L78.7,64 L83.4,68.7 L76,76.1 C75.3,76.8 75.3,78 76,78.8 C76.4,79.2 76.9,79.4 77.3,79.4 C77.7,79.4 78.3,79.2 78.6,78.8 L86,71.4 L90.7,76.1 L76,90.9 Z" id="Shape"></path>
        </g>
    </g>
</svg>