<svg xmlns="http://www.w3.org/2000/svg" width="31" height="31" viewBox="0 0 31 31">
    <path fill="#FFF" fill-rule="evenodd" d="M21.672 15.585l-3.993 3.7a3.087 3.087 0 0 1-4.078.085l-4.446-3.776a2.937 2.937 0 0 1-1.045-2.239V7.09C8.11 3.174 11.358 0 15.365 0s7.254 3.174 7.254 7.09v6.342c0 .815-.342 1.593-.947 2.153zM14.03 21.78c.232.166.37.43.37.71v7.187a.892.892 0 0 1-.904.881H.903A.892.892 0 0 1 0 29.678v-2.834c0-.355.218-.676.553-.813l9.166-3.76a.882.882 0 0 0 .553-.812v-.632c0-.722.84-1.138 1.436-.71l2.322 1.664zm16.206 4.25a.882.882 0 0 1 .554.813v2.834a.892.892 0 0 1-.902.882H17.293a.892.892 0 0 1-.902-.882v-7.186c0-.28.137-.545.368-.711l2.323-1.665c.596-.427 1.436-.01 1.436.712v.63c0 .356.218.677.553.814l9.165 3.759z"/>
</svg>
