<svg xmlns="http://www.w3.org/2000/svg" width="114" height="36" viewBox="0 0 114 36">
    <path fill="#FFF" fill-rule="evenodd" d="M59.703 9.253a2.297 2.297 0 0 1-2.302 2.302 2.298 2.298 0 0 1-2.303-2.302c0-1.275.992-2.302 2.303-2.302 1.31.035 2.302 1.062 2.302 2.302zm-9.493 4.64v.567s-1.098-1.417-3.435-1.417c-3.861 0-6.872 2.94-6.872 7.013 0 4.038 2.975 7.014 6.872 7.014 2.373 0 3.435-1.453 3.435-1.453v.603c0 .283.213.496.496.496h2.869V13.397h-2.869a.507.507 0 0 0-.496.496zm0 8.537c-.531.779-1.594 1.452-2.869 1.452-2.267 0-4.002-1.417-4.002-3.826 0-2.408 1.735-3.825 4.002-3.825 1.24 0 2.373.708 2.869 1.452v4.747zm5.491 4.285h3.4V13.397h-3.4v13.318zm50.793-13.672c-2.337 0-3.435 1.417-3.435 1.417V6.986h-3.401v19.73h2.869a.508.508 0 0 0 .496-.496v-.603s1.098 1.453 3.436 1.453c3.861 0 6.872-2.976 6.872-7.014s-3.011-7.013-6.837-7.013zm-.566 10.803c-1.311 0-2.338-.673-2.869-1.452v-4.746c.531-.709 1.664-1.452 2.869-1.452 2.267 0 4.002 1.416 4.002 3.825 0 2.409-1.735 3.825-4.002 3.825zm-8.041-5.029v7.934h-3.4v-7.545c0-2.196-.709-3.081-2.622-3.081-1.027 0-2.089.531-2.762 1.31v9.281h-3.401V13.397h2.692c.284 0 .496.248.496.496v.567c.992-1.027 2.302-1.417 3.613-1.417 1.488 0 2.727.425 3.719 1.275 1.205.992 1.665 2.267 1.665 4.499zm-20.438-5.774c-2.338 0-3.436 1.417-3.436 1.417V6.986h-3.4v19.73h2.869a.508.508 0 0 0 .496-.496v-.603s1.098 1.453 3.436 1.453c3.861 0 6.872-2.976 6.872-7.014.035-4.038-2.976-7.013-6.837-7.013zm-.567 10.803c-1.31 0-2.337-.673-2.869-1.452v-4.746c.532-.709 1.665-1.452 2.869-1.452 2.267 0 4.003 1.416 4.003 3.825 0 2.409-1.736 3.825-4.003 3.825zm-9.209-10.803c1.027 0 1.559.177 1.559.177v3.153s-2.834-.957-4.605 1.062v9.316h-3.401V13.397h2.869c.284 0 .496.248.496.496v.567c.638-.744 2.019-1.417 3.082-1.417zM32.358 25.511c-.177-.425-.354-.885-.531-1.275-.283-.637-.567-1.24-.815-1.806l-.035-.036a370.616 370.616 0 0 0-7.828-16.01l-.107-.213c-.283-.531-.566-1.098-.85-1.664-.354-.638-.708-1.311-1.275-1.949C19.784 1.142 18.154.362 16.419.362c-1.771 0-3.365.78-4.534 2.126-.532.637-.921 1.31-1.275 1.948-.284.566-.567 1.133-.85 1.665l-.107.212c-2.727 5.313-5.384 10.697-7.828 16.01l-.035.071c-.248.567-.532 1.169-.815 1.807-.177.389-.354.814-.531 1.275-.461 1.31-.602 2.55-.425 3.825a7.526 7.526 0 0 0 4.604 5.88 7.27 7.27 0 0 0 2.869.567c.284 0 .638-.036.921-.071a9.367 9.367 0 0 0 3.543-1.204c1.452-.815 2.833-1.984 4.392-3.684 1.558 1.7 2.975 2.869 4.392 3.684a9.363 9.363 0 0 0 4.463 1.275c.992 0 1.984-.177 2.869-.567 2.48-.992 4.215-3.259 4.605-5.88.283-1.24.142-2.479-.319-3.79zm-15.975 1.842c-1.913-2.409-3.152-4.675-3.577-6.588-.177-.815-.213-1.523-.107-2.161a3.439 3.439 0 0 1 .567-1.487c.673-.957 1.807-1.559 3.117-1.559 1.311 0 2.48.567 3.117 1.559.284.424.496.921.567 1.487.106.638.071 1.381-.106 2.161-.425 1.877-1.665 4.144-3.578 6.588zm14.133 1.665a5.261 5.261 0 0 1-3.223 4.144c-.85.354-1.771.461-2.692.354-.886-.106-1.771-.389-2.692-.921-1.275-.708-2.55-1.806-4.038-3.435 2.338-2.87 3.755-5.491 4.286-7.828a8.884 8.884 0 0 0 .177-3.011 5.765 5.765 0 0 0-.956-2.409c-1.098-1.594-2.94-2.515-4.995-2.515-2.054 0-3.896.957-4.994 2.515a5.738 5.738 0 0 0-.956 2.409 7.34 7.34 0 0 0 .177 3.011c.531 2.337 1.983 4.994 4.286 7.863-1.453 1.629-2.763 2.727-4.038 3.436-.921.531-1.807.815-2.692.921a5.677 5.677 0 0 1-2.692-.354 5.266 5.266 0 0 1-3.224-4.145 5.872 5.872 0 0 1 .319-2.763c.107-.354.283-.708.461-1.133.248-.567.531-1.169.814-1.771l.036-.071a387.936 387.936 0 0 1 7.792-15.904l.107-.212c.283-.532.566-1.098.85-1.63.283-.567.602-1.098.991-1.558.744-.85 1.736-1.311 2.834-1.311s2.09.461 2.834 1.311c.389.46.708.991.992 1.558.283.532.566 1.098.85 1.63l.106.212a469.776 469.776 0 0 1 7.757 15.94v.035c.283.567.531 1.204.815 1.771.177.425.354.779.46 1.133.284.921.39 1.807.248 2.728z"/>
</svg>
