<svg xmlns="http://www.w3.org/2000/svg" width="162" height="32" viewBox="0 0 162 32">
    <g fill="#FFF" fill-rule="evenodd">
        <path d="M18.779 18.055l9.39-5.98-9.39-5.98 9.39-5.98 9.39 5.98-9.39 5.98 9.39 5.98-9.39 5.98-9.39-5.98zM9.361 26.02l9.39-5.98 9.39 5.98-9.39 5.98-9.39-5.98zM18.78 6.095l-9.39 5.98 9.39 5.98-9.39 5.98L0 18.055l9.39-5.98L0 6.095 9.39.115l9.389 5.98zM151.13 17.664l-5.645-7.769h4.834l3.27 4.835 3.297-4.835h4.806l-5.728 7.742L162 26.02h-4.75l-3.717-5.337-3.605 5.337h-4.918l6.12-8.356zm-9.725.587v-.392c0-3.018-1.51-4.778-3.885-4.778-2.347 0-3.912 1.649-3.912 4.779v.391c0 2.906 1.481 4.527 3.885 4.527 2.43 0 3.912-1.592 3.912-4.527zm-12.045.056v-.447c0-5.421 3.438-8.328 8.132-8.328 4.807 0 8.16 2.962 8.16 8.328v.447c0 5.31-3.297 8.132-8.16 8.132-5.197 0-8.132-2.823-8.132-8.132zm-6.092-.252v-.391c0-2.962-1.621-4.583-3.856-4.583-2.32 0-3.913 1.873-3.913 4.639v.335c0 3.018 1.538 4.751 3.857 4.751 2.431 0 3.912-1.565 3.912-4.75zm-7.825 5.03l-.335 2.935h-3.633V4.502h4.108v8.271c.895-2.095 2.683-3.241 5.225-3.241 3.829.028 6.68 2.683 6.68 8.049v.474c0 5.366-2.683 8.384-6.791 8.384-2.655 0-4.388-1.285-5.254-3.354zM105.02 18.28v-.363c0-3.214-1.648-4.807-3.856-4.807-2.347 0-3.912 1.789-3.912 4.778v.308c0 2.85 1.509 4.639 3.828 4.639 2.404 0 3.94-1.593 3.94-4.555zM93.227 9.896h3.521l.419 3.073c.867-2.067 2.655-3.437 5.31-3.437 4.108 0 6.79 2.962 6.79 8.384v.447c0 5.31-2.99 8.076-6.79 8.076-2.571 0-4.276-1.146-5.142-3.018v8.132h-4.108V9.896zm-6.456 8.355v-.392c0-3.018-1.508-4.778-3.884-4.778-2.347 0-3.912 1.649-3.912 4.779v.391c0 2.906 1.481 4.527 3.884 4.527 2.404 0 3.913-1.592 3.913-4.527zm-12.044.056v-.447c0-5.421 3.465-8.328 8.16-8.328 4.807 0 8.132 2.962 8.132 8.328v.447c0 5.31-3.27 8.132-8.132 8.132-5.198 0-8.16-2.823-8.16-8.132zM63.605 9.896h3.382l.53 3.744c.643-2.571 2.292-3.885 5.282-3.885h1.034v4.276H72.1c-3.465 0-4.303 1.202-4.303 4.611v7.378h-4.192V9.896zM49.157 9.7v12.659h3.27c2.739 0 4.611-1.817 4.611-5.813v-1.034c0-3.996-1.928-5.812-4.751-5.812h-3.13zM44.91 6.095h7.6c4.863 0 8.832 2.822 8.832 9.222v1.369c0 6.427-3.745 9.334-8.72 9.334H44.91V6.095z"/>
    </g>
</svg>
