<svg xmlns="http://www.w3.org/2000/svg" width="166" height="35" viewBox="0 0 166 35">
    <g fill="#FFF" fill-rule="evenodd">
        <path d="M0 0h16.863v16.65H0V0M18.585 0h16.863v16.65H18.585c-.002-5.55 0-11.1 0-16.65M152.069 6.344c1.554-.999 3.563-1.092 5.315-.616.015 1.028.002 2.057.007 3.086-.832-.362-1.812-.598-2.688-.243-.695.272-1.108.976-1.216 1.68-.131.893-.046 1.798-.068 2.696 1.778.004 3.557.001 5.335.002.014-1.14-.014-2.281.016-3.421 1.209-.34 2.405-.721 3.608-1.079.01 1.502-.014 3.005.013 4.508 1.203-.017 2.406-.004 3.609-.008v2.924c-1.207-.049-2.416-.013-3.623-.017.005 1.681.001 3.362.002 5.044.02.931-.05 1.867.06 2.795.067.547.268 1.153.788 1.436.87.481 1.974.271 2.773-.257v2.953c-1.042.447-2.207.583-3.334.504-1.07-.078-2.178-.462-2.876-1.302-.806-.949-1.013-2.234-1.03-3.436-.009-2.58.001-5.16-.004-7.741-1.78-.001-3.559-.002-5.337.001-.002 4.049-.001 8.098-.001 12.147h-3.647c0-4.048-.005-8.095.002-12.143-.846-.016-1.693.004-2.538-.013.003-.961.007-1.923-.002-2.885.841-.019 1.684-.011 2.528-.005.061-1.278-.136-2.593.25-3.838.328-1.124 1.055-2.138 2.058-2.772M73.983 6.554c.735-.11 1.531.138 2.018.706.572.622.677 1.612.254 2.339-.468.82-1.516 1.201-2.428 1.004-.947-.168-1.736-1.037-1.693-2.006-.028-1.02.836-1.929 1.849-2.043M46.032 7h5.304c1.651 4.139 3.314 8.274 4.967 12.413.423 1.035.818 2.082 1.26 3.109 2.124-5.172 4.278-10.331 6.386-15.51 1.7-.027 3.402-.006 5.104-.01-.004 6.999-.002 13.998-.001 20.997-1.228-.003-2.455.01-3.681-.007.013-5.165-.001-10.33.006-15.496a8.874 8.874 0 0 0-.022-.696c-.072.108-.136.22-.192.336-2.107 5.287-4.255 10.559-6.351 15.851-.873.031-1.747.002-2.621.016-2.175-5.287-4.322-10.586-6.485-15.877a3.983 3.983 0 0 0-.184-.32c-.044 2.263-.007 4.528-.019 6.791.001 3.134-.002 6.268.001 9.402-1.157.003-2.315 0-3.472.001 0-7-.002-14 0-21M84.02 12.935c1.76-.495 3.658-.475 5.417.016.363.1.714.239 1.04.428-.02 1.147 0 2.295-.01 3.443-1.176-.887-2.668-1.449-4.163-1.263-1.187.106-2.32.714-3.03 1.661-.912 1.174-1.123 2.733-.966 4.169.118 1.124.589 2.247 1.474 2.992.92.807 2.209 1.093 3.412 1.003 1.19-.135 2.311-.632 3.272-1.326.01 1.087-.005 2.174.009 3.261-1.491.876-3.279 1.102-4.986 1.019-1.746-.091-3.487-.744-4.75-1.956-1.374-1.307-2.12-3.171-2.208-5.038-.089-1.941.311-3.966 1.443-5.587.948-1.383 2.43-2.362 4.046-2.822M108.73 12.676c1.75-.22 3.596-.122 5.22.608a6.408 6.408 0 0 1 3.186 3.179c.675 1.48.84 3.142.725 4.747-.112 1.567-.61 3.137-1.603 4.382-1.016 1.322-2.547 2.218-4.187 2.551a10.605 10.605 0 0 1-4.27-.004c-1.677-.354-3.23-1.315-4.214-2.713-1.154-1.62-1.482-3.68-1.335-5.621.099-1.647.617-3.307 1.683-4.599 1.167-1.447 2.956-2.301 4.794-2.53zm1.087 2.858c-.872.048-1.753.339-2.4.935-.89.797-1.298 1.985-1.408 3.14-.121 1.27-.033 2.609.554 3.767.457.899 1.296 1.605 2.286 1.862.972.249 2.03.228 2.973-.129.805-.31 1.443-.964 1.791-1.738.527-1.148.579-2.439.514-3.678-.09-1.132-.416-2.319-1.26-3.137-.787-.787-1.954-1.093-3.05-1.022zM123.859 12.706c1.686-.293 3.452-.078 5.048.519.002 1.104 0 2.207 0 3.31a6.486 6.486 0 0 0-3.83-1.117c-.681.026-1.43.311-1.742.951-.247.633-.076 1.463.529 1.842 1.034.683 2.268.973 3.34 1.585.843.468 1.661 1.08 2.089 1.962.803 1.652.462 3.835-.95 5.067-1.347 1.244-3.289 1.588-5.075 1.522-1.268-.081-2.542-.328-3.707-.84.005-1.161-.008-2.321.006-3.481.98.703 2.111 1.206 3.308 1.41.834.134 1.74.14 2.517-.228.744-.365.877-1.408.436-2.046-.413-.492-1.02-.763-1.592-1.029-1.075-.477-2.204-.876-3.148-1.591-.664-.511-1.166-1.231-1.362-2.043-.292-1.197-.2-2.546.504-3.592.805-1.219 2.204-1.95 3.629-2.201M137.798 12.671c1.82-.223 3.753-.102 5.414.726 1.448.715 2.571 2.007 3.132 3.501.439 1.143.593 2.377.568 3.594.003 1.818-.495 3.684-1.65 5.126-1.082 1.396-2.737 2.303-4.484 2.588-1.709.273-3.514.202-5.137-.429-1.645-.639-3.012-1.943-3.705-3.549-.722-1.637-.798-3.479-.573-5.228.236-1.749 1.038-3.459 2.405-4.622 1.12-.971 2.563-1.521 4.03-1.707zm.985 2.866c-1.01.056-2.01.485-2.662 1.261-.715.831-1.022 1.928-1.105 2.997-.086 1.104 0 2.247.433 3.279.36.866 1.042 1.619 1.923 1.987.816.347 1.736.409 2.609.28.813-.118 1.601-.502 2.13-1.132.526-.627.804-1.417.944-2.209a9.03 9.03 0 0 0-.03-3.216c-.186-.902-.59-1.798-1.32-2.396-.792-.687-1.892-.922-2.922-.851zM98.633 13.18c1.006-.597 2.286-.647 3.385-.282-.005 1.201 0 2.402-.003 3.603a3.916 3.916 0 0 0-2.466-.572c-1.035.116-1.855.901-2.28 1.801-.462.953-.55 2.031-.52 3.073V28h-3.596c-.003-5.014.004-10.029-.003-15.043 1.2-.015 2.4-.009 3.601-.003-.005.861 0 1.722-.003 2.584.39-.937.97-1.847 1.885-2.358M72.465 12.954c1.209-.005 2.42-.017 3.629.006-.015 5.013-.001 10.027-.006 15.04h-3.621c-.003-5.015 0-10.03-.002-15.046M0 18.349c5.621.002 11.242-.001 16.863.002V35H0V18.349M18.586 18.351c5.62-.002 11.241-.001 16.862-.001V35H18.585l.001-16.649"/>
    </g>
</svg>
