<svg xmlns="http://www.w3.org/2000/svg" width="132" height="38" viewBox="0 0 132 38">
    <g fill="#FFF" fill-rule="evenodd">
        <path d="M23.782 3.483a3.264 3.264 0 0 0-4.116-2.104 3.278 3.278 0 0 0-2.098 4.129l8.447 26.066a3.265 3.265 0 0 0 3.974 2.032c1.734-.5 2.79-2.348 2.237-4.056-.02-.065-8.444-26.067-8.444-26.067M10.694 7.748a3.265 3.265 0 0 0-4.117-2.103A3.278 3.278 0 0 0 4.48 9.773l8.447 26.067a3.264 3.264 0 0 0 3.974 2.031c1.733-.5 2.79-2.347 2.237-4.055L10.694 7.748"/>
        <path d="M34.414 25.071a3.278 3.278 0 0 0 2.097-4.128 3.265 3.265 0 0 0-4.116-2.104L6.406 27.311a3.278 3.278 0 0 0-2.025 3.986c.5 1.739 2.34 2.799 4.043 2.244l25.99-8.47"/>
        <path d="M11.823 32.434l6.211-2.025-2.018-6.23-6.212 2.025 2.019 6.23M24.911 28.168l6.212-2.024-2.019-6.232-6.212 2.025 2.02 6.231M30.161 11.943a3.279 3.279 0 0 0 2.098-4.128 3.265 3.265 0 0 0-4.117-2.104L2.153 14.184a3.278 3.278 0 0 0-2.025 3.985c.5 1.74 2.34 2.8 4.044 2.244l25.99-8.47"/>
        <path d="M7.57 19.306l6.212-2.024-2.019-6.231-6.213 2.025 2.02 6.23M20.657 15.04l6.213-2.024-2.019-6.232-6.213 2.025 2.02 6.232M60.776 10.344c1.15.503 1.233.88.334 2.6-.92 1.76-1.15 1.865-2.278 1.403-1.42-.607-3.239-1.068-4.41-1.068-1.921 0-3.196.691-3.196 1.74 0 3.458 11.013 1.592 11.013 8.97 0 3.71-3.177 6.184-7.941 6.184-2.508 0-5.601-.839-7.733-1.929-1.065-.545-1.128-.86-.209-2.62.795-1.551 1.045-1.719 2.195-1.236 1.818.796 4.117 1.404 5.663 1.404 1.756 0 2.926-.713 2.926-1.76 0-3.355-11.201-1.762-11.201-8.909 0-3.794 3.155-6.33 7.878-6.33 2.215 0 5.015.67 6.959 1.551M69.658 1.582v27.5c0 .42-.439.86-1.066.86h-2.884c-.627 0-1.066-.44-1.066-.86v-27.5c0-1.362.377-1.488 2.508-1.488 2.425 0 2.508.168 2.508 1.488M76.868 23.905c0 1.405 1.19 2.348 2.988 2.348 2.173 0 4.137-1.048 5.287-2.83V21.58c-1.15-.44-2.55-.692-3.803-.692-2.675 0-4.472 1.279-4.472 3.018zm13.29-6.854v11.843c0 .629-.438 1.069-1.065 1.069H86.25c-.647 0-1.107-.482-1.065-1.132l.042-1.279c-1.547 1.72-3.762 2.62-5.977 2.62-4.305 0-7.189-2.494-7.189-6.225 0-3.961 3.26-6.623 8.15-6.644 1.86 0 3.553.335 4.932.901v-1.362c0-2.18-1.714-3.48-4.618-3.48-1.359 0-3.03.545-4.368 1.32-1.024.588-1.275.546-2.382-1.11-1.087-1.656-1.045-1.97 0-2.641 2.006-1.3 4.723-2.138 7.23-2.138 5.622 0 9.153 3.06 9.153 8.258zM109.72 10.386c1.044.608 1.086.943-.063 2.725-1.087 1.677-1.275 1.781-2.424 1.194-.878-.46-2.278-.859-3.427-.859-3.616 0-6.019 2.39-6.019 5.995 0 3.752 2.403 6.267 6.019 6.267 1.254 0 2.82-.482 3.845-1.048 1.045-.608 1.275-.566 2.382 1.048 1.003 1.509.982 1.866.084 2.494-1.61 1.111-4.159 1.97-6.395 1.97-6.687 0-11.16-4.296-11.16-10.731 0-6.393 4.473-10.648 11.202-10.648 2.048 0 4.451.692 5.956 1.593M131.537 27.343c.836 1.069.502 1.446-1.588 2.2-2.132.776-2.424.734-3.176-.25l-5.977-8.008-2.675 2.6v5.198c0 .419-.439.859-1.066.859h-2.883c-.627 0-1.066-.44-1.066-.86v-27.5c0-1.362.376-1.488 2.507-1.488 2.424 0 2.508.168 2.508 1.488V17.22l8.192-7.881c.899-.86 1.4-.796 3.01.272 1.776 1.153 1.9 1.468 1.044 2.306l-6.102 5.953 7.272 9.474"/>
    </g>
</svg>
