<?xml version="1.0" encoding="UTF-8"?>
<svg width="11px" height="19px" viewBox="0 0 11 19" version="1.1" xmlns="http://www.w3.org/2000/svg" xmlns:xlink="http://www.w3.org/1999/xlink">
    <!-- Generator: Sketch 52.2 (67145) - http://www.bohemiancoding.com/sketch -->
    <title>facebook-logo</title>
    <desc>Created with Sketch.</desc>
    <g id="Page-1" stroke="none" stroke-width="1" fill="none" fill-rule="evenodd">
        <g id="landing" transform="translate(-1193.000000, -5375.000000)" fill="#000000">
            <g id="Group-16" transform="translate(1155.000000, 5375.000000)">
                <path d="M47.9121251,0.00368453449 L45.5429904,0 C42.8816632,0 41.1612908,1.82482712 41.1612908,4.64865435 L41.1612908,6.79231652 L38.7790906,6.79231652 C38.5740807,6.79231652 38.4070796,6.96401582 38.4070796,7.17698192 L38.4070796,10.2830445 C38.4070796,10.495028 38.5740807,10.6677099 38.7790906,10.6677099 L41.1612908,10.6677099 L41.1612908,18.5042235 C41.1612908,18.716207 41.3282919,18.8888889 41.534252,18.8888889 L44.6409946,18.8888889 C44.8469546,18.8888889 45.0139557,18.716207 45.0139557,18.5042235 L45.0139557,10.6677099 L47.7988115,10.6677099 C48.0047715,10.6677099 48.1710599,10.495028 48.1710599,10.2830445 L48.1727228,7.17698192 C48.1727228,7.07528877 48.1328136,6.97752578 48.06321,6.904572 C47.9936065,6.83260076 47.8990596,6.79231652 47.7997617,6.79231652 L45.0139557,6.79231652 L45.0139557,4.97510411 C45.0139557,4.10186943 45.2154022,3.65849711 46.3150437,3.65849711 L47.9111749,3.65751457 C48.117135,3.65751457 48.2831858,3.48483272 48.2831858,3.27284917 L48.2831858,0.389578114 C48.2831858,0.176366384 48.117135,0.00466707702 47.9121251,0.00368453449 Z" id="facebook-logo"></path>
            </g>
        </g>
    </g>
</svg>