<?xml version="1.0" encoding="UTF-8"?>
<svg width="21px" height="19px" viewBox="0 0 21 19" version="1.1" xmlns="http://www.w3.org/2000/svg" xmlns:xlink="http://www.w3.org/1999/xlink">
    <!-- Generator: Sketch 52.2 (67145) - http://www.bohemiancoding.com/sketch -->
    <title>Fill 1</title>
    <desc>Created with Sketch.</desc>
    <g id="Page-1" stroke="none" stroke-width="1" fill="none" fill-rule="evenodd">
        <g id="landing" transform="translate(-1155.000000, -5375.000000)" fill="#000000">
            <g id="Group-16" transform="translate(1155.000000, 5375.000000)">
                <path d="M0.368187388,9.05705788 L5.17235286,10.9228863 L7.03195696,17.1452674 C7.15071239,17.5439062 7.61939239,17.6911585 7.9302241,17.4266649 L10.6079984,15.1551468 C10.8886852,14.9171387 11.288388,14.9052066 11.5819319,15.1269438 L16.4118987,18.77589 C16.7444487,19.0272765 17.2154742,18.8377197 17.2989592,18.4196461 L20.8372978,0.710049468 C20.9282538,0.253558321 20.4969292,-0.127815173 20.0788962,0.0405893824 L0.36280126,7.95469956 C-0.123861458,8.14995121 -0.119778425,8.86677791 0.368187388,9.05705788 Z M6.73233187,9.92963393 L16.1213953,3.91235746 C16.2901027,3.80469786 16.4638488,4.04198287 16.3189446,4.18182283 L8.56987022,11.6767747 C8.29778389,11.9405452 8.12195287,12.2936253 8.07208775,12.6767163 L7.80842811,14.712034 C7.77341827,14.9839401 7.40664034,15.0107872 7.33436198,14.748011 L6.31933749,11.0362408 C6.20292763,10.6128339 6.37233003,10.1608625 6.73233187,9.92963393 Z" id="Fill-1"></path>
            </g>
        </g>
    </g>
</svg>