<?xml version="1.0" encoding="UTF-8"?>
<svg width="21px" height="17px" viewBox="0 0 21 17" version="1.1" xmlns="http://www.w3.org/2000/svg" xmlns:xlink="http://www.w3.org/1999/xlink">
    <!-- Generator: Sketch 52.2 (67145) - http://www.bohemiancoding.com/sketch -->
    <title>twitter-logo-silhouette</title>
    <desc>Created with Sketch.</desc>
    <g id="Page-1" stroke="none" stroke-width="1" fill="none" fill-rule="evenodd">
        <g id="landing" transform="translate(-1222.000000, -5376.000000)" fill="#000000">
            <g id="Group-16" transform="translate(1155.000000, 5375.000000)">
                <path d="M87.7876106,3.0826441 C87.0237295,3.41604155 86.1963273,3.64685516 85.331464,3.74783612 C86.2158722,3.22690261 86.8901724,2.40142335 87.2142926,1.41725973 C86.3868904,1.89972431 85.471536,2.25075335 84.4910319,2.43828941 C83.7157495,1.62403026 82.6016883,1.11111111 81.373615,1.11111111 C79.0135643,1.11111111 77.0981609,2.99608899 77.0981609,5.31865102 C77.0981609,5.6504456 77.1372508,5.9694172 77.2072868,6.27716869 C73.6501089,6.10085273 70.5017459,4.42905687 68.3892644,1.88048984 C68.0195394,2.50080144 67.8094314,3.22690261 67.8094314,3.99788421 C67.8094314,5.45649804 68.5667975,6.74681028 69.7118049,7.49695454 C69.0114448,7.47932295 68.3566895,7.28537539 67.7784852,6.97121241 L67.7784852,7.02250433 C67.7784852,9.06296083 69.2541277,10.7652113 71.2069923,11.1547092 C70.8502972,11.2476758 70.469171,11.2973649 70.0815299,11.2973649 C69.8079008,11.2973649 69.5407867,11.2733218 69.2736726,11.2236327 C69.8209307,12.8954286 71.3975554,14.108803 73.2689827,14.1472719 C71.8047415,15.2740912 69.959374,15.9440918 67.9560184,15.9440918 C67.6123533,15.9440918 67.2752032,15.9248573 66.9380531,15.8879913 C68.8339116,17.0837341 71.0799502,17.7777778 73.4970069,17.7777778 C81.3605851,17.7777778 85.6620991,11.3662884 85.6620991,5.80752709 L85.6490692,5.26255049 C86.4895013,4.66788485 87.2142926,3.9289607 87.7876106,3.0826441 Z" id="twitter-logo-silhouette"></path>
            </g>
        </g>
    </g>
</svg>